<mxfile host="app.diagrams.net" modified="2024-06-26T03:27:43.858Z" agent="Mozilla/5.0 (Windows NT 10.0; Win64; x64) AppleWebKit/537.36 (KHTML, like Gecko) Chrome/126.0.0.0 Safari/537.36" version="24.6.2" etag="mXELMC24X60iqeL4KXnX" type="github">
  <diagram name="第 1 页" id="ysfWRLWJq6R-YRiug6GD">
    <mxGraphModel>
      <root>
        <mxCell id="0" />
        <mxCell id="1" parent="0" />
      </root>
    </mxGraphModel>
  </diagram>
</mxfile>
